<svg xmlns="http://www.w3.org/2000/svg" width="17" height="17" viewBox="0 0 17 17" fill="none">
  <path fill-rule="evenodd" clip-rule="evenodd" d="M8.33333 16.6667C12.9357 16.6667 16.6667 12.9357 16.6667 8.33333C16.6667 3.73096 12.9357 0 8.33333 0C3.73096 0 0 3.73096 0 8.33333C0 12.9357 3.73096 16.6667 8.33333 16.6667ZM5.21696 5.21696C5.50624 4.92768 5.97525 4.92768 6.26452 5.21696L8.33333 7.28518L10.4021 5.21696C10.6692 4.94993 11.0893 4.92939 11.3799 5.15534L11.4497 5.21696C11.739 5.50624 11.739 5.97525 11.4497 6.26452L9.38148 8.33333L11.4497 10.4021C11.7167 10.6692 11.7373 11.0893 11.5113 11.3799L11.4497 11.4497C11.1604 11.739 10.6914 11.739 10.4021 11.4497L8.33333 9.38148L6.26452 11.4497C5.9975 11.7167 5.57733 11.7373 5.28674 11.5113L5.21696 11.4497C4.92768 11.1604 4.92768 10.6914 5.21696 10.4021L7.28518 8.33333L5.21696 6.26452C4.94993 5.9975 4.92939 5.57733 5.15534 5.28674L5.21696 5.21696Z" fill="#989CB1"/>
</svg>