<svg xmlns="http://www.w3.org/2000/svg" width="16" height="16" viewBox="0 0 16 16" fill="none">
  <path d="M12.5323 4.26814C12.7536 4.04684 12.7536 3.68805 12.5323 3.46675C12.311 3.24546 11.9522 3.24546 11.7309 3.46675L7.99952 7.19813L4.26814 3.46675C4.04684 3.24546 3.68805 3.24546 3.46675 3.46675C3.24546 3.68805 3.24546 4.04684 3.46675 4.26814L7.19813 7.99952L3.46675 11.7309C3.24546 11.9522 3.24546 12.311 3.46675 12.5323C3.68805 12.7536 4.04684 12.7536 4.26814 12.5323L7.99952 8.80091L11.7309 12.5323C11.9522 12.7536 12.311 12.7536 12.5323 12.5323C12.7536 12.311 12.7536 11.9522 12.5323 11.7309L8.80091 7.99952L12.5323 4.26814Z" fill="#727393"/>
</svg>