<svg xmlns="http://www.w3.org/2000/svg" width="17" height="15" viewBox="0 0 17 15" fill="none">
  <path d="M6.64453 0.489258C7.52737 -0.163136 8.72263 -0.163136 9.60547 0.489258C9.86394 0.680301 10.067 0.944507 10.2578 1.2373C10.448 1.52915 10.6644 1.91218 10.9326 2.38477L15.2861 10.0527C15.5544 10.5253 15.7714 10.9083 15.9248 11.2217C16.0787 11.536 16.2029 11.8468 16.2363 12.1699C16.3504 13.2736 15.7526 14.3268 14.7559 14.7783C14.4639 14.9105 14.1368 14.9569 13.792 14.9785C13.4484 15.0001 13.0141 15 12.4775 15H3.77246C3.236 15 2.80156 15.0001 2.45801 14.9785C2.11321 14.9569 1.78612 14.9105 1.49414 14.7783C0.497325 14.3268 -0.100366 13.2737 0.0136719 12.1699C0.0470654 11.8468 0.171314 11.5361 0.325195 11.2217C0.478616 10.9083 0.695619 10.5253 0.963867 10.0527L5.31641 2.38477C5.58467 1.91216 5.80204 1.52916 5.99219 1.2373C6.18297 0.944497 6.38603 0.68029 6.64453 0.489258ZM8.17383 10.748C7.69823 10.748 7.3125 11.1403 7.3125 11.624C7.31263 12.1077 7.69831 12.5 8.17383 12.5C8.64915 12.4998 9.03405 12.1075 9.03418 11.624C9.03418 11.1404 8.64923 10.7483 8.17383 10.748ZM8.17383 4.3252C7.77749 4.3252 7.45605 4.65157 7.45605 5.05469V8.7041C7.45606 9.10721 7.7775 9.43359 8.17383 9.43359C8.56996 9.43335 8.89062 9.10706 8.89062 8.7041V5.05469C8.89062 4.65172 8.56996 4.32545 8.17383 4.3252Z" fill="#FF4363"/>
</svg>