<svg xmlns="http://www.w3.org/2000/svg" width="20" height="20" viewBox="0 0 20 20" fill="none">
  <path d="M10 12C10.5304 12 11.0391 11.7893 11.4142 11.4142C11.7893 11.0391 12 10.5304 12 10C12 9.46957 11.7893 8.96086 11.4142 8.58579C11.0391 8.21071 10.5304 8 10 8C9.46957 8 8.96086 8.21071 8.58579 8.58579C8.21071 8.96086 8 9.46957 8 10C8 10.5304 8.21071 11.0391 8.58579 11.4142C8.96086 11.7893 9.46957 12 10 12Z" fill="#989CB1"/>
  <path fill-rule="evenodd" clip-rule="evenodd" d="M0.856445 9.95077C2.08037 6.08683 5.72142 3.28387 10.0234 3.28387C14.3254 3.28387 17.9665 6.08683 19.1904 9.95077C17.9665 13.8147 14.3254 16.6177 10.0234 16.6177C5.72142 16.6177 2.08037 13.8147 0.856445 9.95077ZM13.8662 9.95077C13.8662 10.9612 13.4614 11.9302 12.7407 12.6446C12.02 13.3591 11.0426 13.7604 10.0234 13.7604C9.00426 13.7604 8.02683 13.3591 7.30616 12.6446C6.5855 11.9302 6.18063 10.9612 6.18063 9.95077C6.18063 8.94039 6.5855 7.97139 7.30616 7.25694C8.02683 6.54249 9.00426 6.14112 10.0234 6.14112C11.0426 6.14112 12.02 6.54249 12.7407 7.25694C13.4614 7.97139 13.8662 8.94039 13.8662 9.95077V9.95077Z" fill="#989CB1"/>
</svg>